<?xml version="1.0" standalone="no"?>
<!DOCTYPE svg PUBLIC "-//W3C//DTD SVG 20010904//EN"
 "http://www.w3.org/TR/2001/REC-SVG-20010904/DTD/svg10.dtd">
<svg version="1.0" xmlns="http://www.w3.org/2000/svg"
 width="512.000000pt" height="512.000000pt" viewBox="0 0 512.000000 512.000000"
 preserveAspectRatio="xMidYMid meet">
<metadata>
Created by potrace 1.11, written by Peter Selinger 2001-2013
</metadata>
<g transform="translate(0.000000,512.000000) scale(0.100000,-0.100000)"
fill="#000000" stroke="none">
<path d="M1940 5112 c-99 -14 -328 -98 -338 -123 -2 -5 -9 -9 -15 -9 -31 0
-200 -157 -252 -232 -21 -31 -26 -33 -87 -34 -250 -6 -468 -100 -640 -277 -65
-66 -135 -168 -167 -242 -12 -28 -26 -59 -31 -70 -17 -37 -39 -129 -46 -190
-11 -88 -11 -1312 -1 -1369 17 -95 77 -175 166 -218 38 -19 62 -23 141 -23
l95 0 0 -935 c-1 -831 1 -942 15 -1000 45 -180 160 -305 338 -368 43 -15 150
-17 1127 -19 1040 -3 1082 -2 1147 16 189 54 322 197 364 391 4 19 8 112 8
207 1 94 4 174 7 177 3 3 130 6 282 6 238 1 285 4 342 20 192 55 326 204 363
405 8 41 7 1799 0 1855 -26 185 -155 338 -343 406 -43 16 -94 19 -350 24
l-300 5 0 147 0 148 44 42 c217 209 202 566 -32 746 -130 101 -283 134 -437
94 -54 -14 -55 -13 -70 10 -56 86 -201 178 -312 199 -69 12 -175 6 -239 -15
-46 -14 -48 -14 -69 9 -76 80 -270 177 -425 210 -34 8 -246 13 -285 7z m2225
-2957 l0 -750 -200 0 -200 0 -1 745 c0 410 1 748 4 753 2 4 92 6 200 5 l197
-3 0 -750z"/>
</g>
</svg>
